<svg xmlns="http://www.w3.org/2000/svg" viewBox="0 0 314 314"><title>logo</title><circle cx="157" cy="157" r="157"/><circle cx="157" cy="157" r="151.5" style="fill:#ea1722"/><circle cx="157" cy="157" r="145.86"/><polygon points="167.53 232.15 156.66 238.43 145.78 232.15 145.78 219.59 156.66 213.31 167.53 219.59 167.53 232.15" style="fill:#576d92"/><polygon points="196.89 232.15 186.01 238.43 175.13 232.15 175.13 219.59 186.01 213.31 196.89 219.59 196.89 232.15" style="fill:#ea1722"/><polygon points="137.97 232.15 127.09 238.43 116.21 232.15 116.21 219.59 127.09 213.31 137.97 219.59 137.97 232.15" style="fill:#081e4b"/><path d="M197,176h10.23c8.42,0,13.1,3.62,13.42,13.32v11.83c-0.32,9.69-5,13.32-13.42,13.32H197V176Zm7.35,32h2.56c4,0,6.39-1.92,6.39-7.67V190.14c0-5.43-1.81-7.67-6.39-7.67h-2.56v25.46Z" transform="translate(-140.64 -84)" style="fill:#fff"/><path d="M245.45,185.45v29H239v-3.3c-2.45,2.13-4.74,3.84-7.51,3.84-4.1,0-6.23-2.08-6.23-7.46V185.45h6.71v21.31c0,1.92.64,3.2,2.45,3.2,1.38,0,2.93-1.33,4.37-2.61V185.45h6.71Z" transform="translate(-140.64 -84)" style="fill:#fff"/><path d="M264.57,195.46v-1.28c0-2.24-1.6-3.41-3.94-3.41s-3.94,1.17-3.94,3.41v11.51c0,2.24,1.6,3.41,3.94,3.41s3.94-1.17,3.94-3.41v-1.81h6.71V204c0,7.67-3.94,11-10.65,11S250,211.66,250,204v-8.1c0-7.67,3.94-11,10.65-11,6.55,0,10.49,3.2,10.6,10.55h-6.66Z" transform="translate(-140.64 -84)" style="fill:#fff"/><path d="M275.81,214.43V176h6.71v12.78c2.24-2.13,4.53-3.84,7.3-3.84,4.1,0,6.23,2.08,6.23,7.46v22.05h-6.71V193.12c0-1.92-.64-3.2-2.45-3.2-1.38,0-2.93,1.33-4.37,2.61v21.89h-6.71Z" transform="translate(-140.64 -84)" style="fill:#fff"/><path d="M307.29,201.54v3.84c0,2.88,1.7,4.15,3.94,4.15,2.82,0,3.94-1.81,3.94-4h6.71c-0.32,6-3.89,9.48-10.65,9.48-6.39,0-10.65-3.94-10.65-10.28V195.2c0-6.34,4.26-10.28,10.65-10.28,6.23,0,10.65,3.94,10.65,9.85v6.77h-14.6Zm7.88-5.43v-1.6c0-2.56-1.23-4.15-3.94-4.15s-3.94,1.6-3.94,4.15v1.6h7.88Z" transform="translate(-140.64 -84)" style="fill:#fff"/><path d="M326.41,214.43v-29h6.5v3.3c2.45-2.13,4.74-3.84,7.51-3.84,4.1,0,6.23,2.08,6.23,7.46v22.05h-6.71V193.12c0-1.92-.64-3.2-2.45-3.2-1.39,0-2.93,1.33-4.37,2.61v21.89h-6.71Z" transform="translate(-140.64 -84)" style="fill:#fff"/><path d="M351.71,214.43v-29h6.5v3.3c2.45-2.13,4.74-3.84,7.51-3.84,4.1,0,6.23,2.08,6.23,7.46v22.05h-6.71V193.12c0-1.92-.64-3.2-2.45-3.2-1.39,0-2.93,1.33-4.37,2.61v21.89h-6.71Z" transform="translate(-140.64 -84)" style="fill:#fff"/><path d="M383.19,201.54v3.84c0,2.88,1.71,4.15,3.94,4.15,2.82,0,3.94-1.81,3.94-4h6.71c-0.32,6-3.89,9.48-10.65,9.48-6.39,0-10.65-3.94-10.65-10.28V195.2c0-6.34,4.26-10.28,10.65-10.28,6.23,0,10.65,3.94,10.65,9.85v6.77h-14.6Zm7.88-5.43v-1.6c0-2.56-1.22-4.15-3.94-4.15s-3.94,1.6-3.94,4.15v1.6h7.88Z" transform="translate(-140.64 -84)" style="fill:#fff"/><path d="M197.25,223.48h20.26c18.76,0,29.64,10.81,29.64,26v0.15c0,15.16-11,26.42-29.94,26.42h-20V223.48Zm20.49,39.62c8.71,0,14.48-4.8,14.48-13.28v-0.15c0-8.41-5.78-13.28-14.48-13.28h-5.93V263.1h5.93Z" transform="translate(-140.64 -84)" style="fill:#fff"/><path d="M264.19,223.1h14L300.59,276H285l-3.83-9.38H260.89L257.14,276H241.83Zm12.76,32.19-5.85-14.93-5.93,14.93h11.78Z" transform="translate(-140.64 -84)" style="fill:#fff"/><path d="M300.59,268.2l8.1-9.68a27.05,27.05,0,0,0,17,6.3c3.9,0,6-1.35,6-3.6v-0.15c0-2.18-1.73-3.38-8.86-5-11.18-2.55-19.81-5.7-19.81-16.51v-0.15c0-9.75,7.73-16.81,20.34-16.81,8.93,0,15.91,2.4,21.61,7l-7.28,10.28c-4.8-3.38-10.06-5.18-14.71-5.18-3.53,0-5.25,1.5-5.25,3.38v0.15c0,2.4,1.8,3.45,9.08,5.1,12.08,2.63,19.59,6.53,19.59,16.36v0.15c0,10.73-8.48,17.11-21.24,17.11C315.9,276.91,307,274,300.59,268.2Z" transform="translate(-140.64 -84)" style="fill:#fff"/><path d="M350.12,223.48h14.56v19.66h18.69V223.48h14.56V276H383.37V256H364.68v20H350.12V223.48Z" transform="translate(-140.64 -84)" style="fill:#fff"/></svg>