<svg id="Layer_1" data-name="Layer 1" xmlns="http://www.w3.org/2000/svg" viewBox="0 0 506.98 279.15"><defs><style>.cls-1,.cls-2{fill:#007dc4;}.cls-1{stroke:#fff;stroke-miterlimit:10;}</style></defs><title>tri-logo</title><path class="cls-1" d="M1798.87,295.65c-2-1.59-13.89-11.18-21.77-17.85l-8.26,10.77c-3.43,4.47-6.8,11-12.84,11.61-11.71,1.11-24,0-35.78,0a8.5,8.5,0,0,1-1-.07l60.85,35.07,14.25-8.21Z" transform="translate(-1349.25 -160.14)"/><path class="cls-1" d="M1780.06,160.72l-75.67,43.62v87.23l10.12,5.83c-3.08-4.29-1.17-12,5.73-12h32.55l14.48-18.87a8.41,8.41,0,0,1,1-1,11.86,11.86,0,0,1,.19-2.71l7.16-37.57-10,1.07-8.21,20c-3,7.27-14.92,4.07-11.91-3.28l9.88-24.09a6.6,6.6,0,0,1,6-4.53l20.65-2.21a11.85,11.85,0,0,1,8.59-1.65l1.57,0.3a12,12,0,0,1,9.44,9.18,7,7,0,0,1,.76.83l10.31,13.36,18.68-3.53c7.78-1.47,11.08,10.43,3.28,11.91l-22.85,4.32c-3,.57-5.14-0.47-7-2.84l-5.46-7.07-5.8,30.44c0.85,1.65,12.75,13.37,19.86,19,2,1.57,2.72,4.31,2.17,7.93l-3.3,22.32,43.52-25.08V204.33ZM1797,209a15,15,0,1,1,15-15A15,15,0,0,1,1797,209Z" transform="translate(-1349.25 -160.14)"/><path class="cls-2" d="M1388.4,378.19v10.18H1375v50.09h-11.52V388.37H1350V378.19h38.4Z" transform="translate(-1349.25 -160.14)"/><path class="cls-2" d="M1396.33,378.19h14.53c9.68,0,16.53,5.68,16.53,15.61,0,6.76-3,12.44-9.68,14.78l10.18,29.89H1421l-9.68-28.55-8.52.33v28.22h-6.51V378.19Zm6.51,26.38h5.68c9.35,0,12.35-3.67,12.35-10.44s-3-10.44-12.35-10.44h-5.68v20.87Z" transform="translate(-1349.25 -160.14)"/><path class="cls-2" d="M1445.84,378.19v60.27h-6.51V378.19h6.51Z" transform="translate(-1349.25 -160.14)"/><path class="cls-2" d="M1491.25,423.93h-18v-7.68l17.53-38.07h10v38.07h5.51v7.68h-5.51v14.53h-9.52V423.93Zm0.17-7.68V392.71h-0.17l-10.1,23.54h10.27Z" transform="translate(-1349.25 -160.14)"/><path class="cls-2" d="M1534,378.19h15.36c10.69,0,16.36,5.84,16.36,18.2v23.88c0,12.35-5.68,18.2-16.36,18.2H1534V378.19Zm10.35,51.76h3.59c5.51,0,7.43-2.09,7.43-8.43V395.13c0-6.34-1.92-8.43-7.43-8.43h-3.59v43.24Z" transform="translate(-1349.25 -160.14)"/><path class="cls-2" d="M1583.49,378.19v44.24c0,6.09,1.75,11.35,8.85,11.35s8.85-5.26,8.85-11.35V378.19h6.51V422.6c0,9.68-4.51,16.7-15.36,16.7s-15.36-7-15.36-16.7V378.19h6.51Z" transform="translate(-1349.25 -160.14)"/><path class="cls-2" d="M1644.18,396.38c-0.83-9.52-3.84-13.52-8.93-13.52-7.6,0-10.94,6.68-10.94,25.46s3.34,25.46,10.94,25.46c6.09,0,9.6-4.17,9.77-15.36h6.51c-0.17,13.36-6,20.87-16.28,20.87-10.77,0-17.45-8.18-17.45-31s6.68-31,17.45-31c8.93,0,14.44,6.18,15.44,19h-6.51Z" transform="translate(-1349.25 -160.14)"/><path class="cls-2" d="M1668.47,378.19v26h17.7v-26h6.51v60.27h-6.51V409.74h-17.7v28.72H1662V378.19h6.51Z" transform="translate(-1349.25 -160.14)"/><path class="cls-2" d="M1732,378.19v5.51h-21v20.54h15.53v5.51H1711v23.21h22v5.51h-28.55V378.19H1732Z" transform="translate(-1349.25 -160.14)"/><path class="cls-2" d="M1751.62,378.19l15.53,44.41h0.17V378.19h6.51v60.27h-7L1748.11,386h-0.17v52.43h-6.51V378.19h10.18Z" transform="translate(-1349.25 -160.14)"/><path class="cls-2" d="M1794.11,378.19l15.53,44.41h0.17V378.19h6.51v60.27h-7L1790.6,386h-0.17v52.43h-6.51V378.19h10.18Z" transform="translate(-1349.25 -160.14)"/><path class="cls-2" d="M1854.8,378.19v5.51h-21v20.54h15.53v5.51h-15.53v23.21h22v5.51h-28.55V378.19h27.55Z" transform="translate(-1349.25 -160.14)"/><path class="cls-1" d="M1350.69,268c5.74,3.09,12,9.31,18.62,10.35,7.42,1.18,12.92-3.78,19.57-5.78,12.95-3.88,22.52,3.25,34.33,7.5,8,2.89,11.46,3.15,18.46-1.5,4.36-2.9,9.65-5.43,15-5.43,6.93,0,12.07,2.9,18.64,4.27,8,1.67,19.05-1.15,25.06-7.16a5.79,5.79,0,0,1,.7-0.59v-65L1425.42,161l-75.67,43.62v63A5.52,5.52,0,0,1,1350.69,268Zm126.2-27.09A15.87,15.87,0,1,1,1461,225.06,15.87,15.87,0,0,1,1476.89,240.93Zm-78.07-19.53a7,7,0,0,1-1.55-5.39,7.56,7.56,0,0,1,5.17-8.29l50.18-13.94c3.9-1.08,8,1.52,9.23,5.82s-1,8.66-4.9,9.74l-38.18,10.61,24.71,29.12,15.33,16.09s-17.37-1.13-22.83.56c-3.41,1.06-8.4,7.85-12,7.8-3.05,0-7.19-5.82-10-7-4.38-1.77-18.65-3-18.65-3l22.34-19.93Z" transform="translate(-1349.25 -160.14)"/><path class="cls-1" d="M1501.1,283.59c-9.75,5.65-22.4,7.19-32.48,3.24-6-2.34-12.91-4.21-18.81-.28-2.45,1.63-5,4-7.64,5.21a21.3,21.3,0,0,1-15.93,1.1c-7.59-2.38-14.46-6.45-21.94-8.92-9.62-3.17-14.74,1.25-23.35,4.09-12.6,4.16-21.17-1.78-31.18-7.72v8.36a5.35,5.35,0,0,1,.81.34c5.74,3.09,12,9.31,18.61,10.35,7.42,1.18,12.92-3.78,19.57-5.78,12.95-3.89,22.52,3.25,34.33,7.5,8,2.89,11.46,3.15,18.46-1.5,4.36-2.9,9.65-5.43,15-5.43,6.93,0,12.08,2.91,18.64,4.28,8,1.67,19-1.15,25.06-7.16a8.09,8.09,0,0,1,.83-0.68v-7Z" transform="translate(-1349.25 -160.14)"/><polygon class="cls-1" points="151.85 131.75 151.85 131.75 151.85 131.59 151.85 131.75"/><path class="cls-1" d="M1468.48,307.82c-6-2.34-12.91-4.21-18.82-.28-2.45,1.63-5,4-7.63,5.21a21.3,21.3,0,0,1-15.93,1.1c-7.59-2.38-14.46-6.45-21.95-8.92-9.62-3.17-14.74,1.25-23.35,4.09l-0.87.27,45.49,26.22,46.22-26.64A32,32,0,0,1,1468.48,307.82Z" transform="translate(-1349.25 -160.14)"/><path class="cls-1" d="M1576,272h-22.21l8-20.69A26.19,26.19,0,0,1,1576,272Zm78.61-23.54a26,26,0,0,0-6.93,1l9.37,24.25a2.61,2.61,0,0,1-1.5,3.38,2.56,2.56,0,0,1-.94.18,2.61,2.61,0,0,1-2.44-1.67l-9.37-24.25a26.14,26.14,0,1,0,35.3,34.79v-23A26.18,26.18,0,0,0,1654.6,248.46ZM1550,243.23a31.27,31.27,0,0,1,8.83,1.28l6.51-16.85-6.34-8.27h-3.78a2.62,2.62,0,0,1,0-5.23h18.31a2.62,2.62,0,0,1,0,5.23h-7.94l4,5.23h62.9l-5-13.08h-11.29a2.62,2.62,0,1,1,0-5.23h13.08a2.62,2.62,0,0,1,2.43,1.66h0l7.07,18.31v0l7,18.19a31.29,31.29,0,0,1,32.33,9.34V204.66L1602.42,161l-75.67,43.62v48.87A31.3,31.3,0,0,1,1550,243.23Zm26,34h-26a2.61,2.61,0,0,1-2.44-3.56l9.37-24.25a26,26,0,0,0-30.15,13.19v24A26.14,26.14,0,0,0,1576,277.23Zm47.22-2.61a31.43,31.43,0,0,1,17.68-28.23l-5.29-13.7-31.19,43.45a0.35,0.35,0,0,1-.08.07,2.6,2.6,0,0,1-2,1h-21a31.43,31.43,0,0,1-30,28.74l51.23,29.53L1653.64,306A31.42,31.42,0,0,1,1623.21,274.62Zm8-44.77h-57.82l28.91,40.28Zm-34,42.15L1569,232.69l-5.29,13.7A31.45,31.45,0,0,1,1581.24,272h15.95Z" transform="translate(-1349.25 -160.14)"/></svg>